<?xml version="1.0" encoding="UTF-8"?> <svg xmlns="http://www.w3.org/2000/svg" viewBox="0 0 1001 376.31"><defs><style>.a{fill:#4285f4;}.b{fill:#ea4335;}.c{fill:#fbbc05;}.d{fill:#34a853;}</style></defs><title>google-review</title><path class="a" d="M203.75,88.87v26.62h63.64c-1.95,14.94-6.93,25.87-14.5,33.55-9.31,9.31-23.81,19.48-49.14,19.48-39.17,0-69.8-31.6-69.8-70.77S164.58,27,203.75,27A67.69,67.69,0,0,1,251.7,46l18.72-18.72c-15.8-15.37-37-27-66.67-27C150.08.24,105,44,105,97.64s45.13,97.4,98.8,97.4c29,0,50.87-9.53,68-27.28,17.53-17.53,23-42.31,23-62.22a85.08,85.08,0,0,0-1.41-16.67Z"></path><path class="b" d="M374.31,67.23c-34.74,0-63.09,26.4-63.09,62.87,0,36.15,28.35,62.88,63.09,62.88s63.1-26.62,63.1-62.88C437.41,93.63,409.05,67.23,374.31,67.23Zm0,101c-19,0-35.49-15.69-35.49-38.1,0-22.61,16.45-38.09,35.49-38.09s35.5,15.48,35.5,38.09C409.81,152.51,393.36,168.2,374.31,168.2Z"></path><path class="a" d="M683.61,81.3h-1c-6.17-7.36-18.08-14.07-33.12-14.07-31.38,0-58.76,27.38-58.76,62.87,0,35.28,27.38,62.88,58.76,62.88,15,0,27-6.71,33.12-14.28h1v8.76c0,24-12.88,36.91-33.55,36.91-16.88,0-27.38-12.13-31.71-22.41l-24,10c6.92,16.67,25.21,37.12,55.73,37.12,32.36,0,59.74-19,59.74-65.47V70.47H683.61ZM651.9,168.2c-19,0-33.55-16.24-33.55-38.1,0-22.18,14.51-38.09,33.55-38.09,18.83,0,33.55,16.23,33.55,38.31S670.73,168.2,651.9,168.2Z"></path><path class="c" d="M515,67.23c-34.74,0-63.09,26.4-63.09,62.87,0,36.15,28.35,62.88,63.09,62.88s63.1-26.62,63.1-62.88C578.1,93.63,549.74,67.23,515,67.23Zm0,101c-19.05,0-35.5-15.69-35.5-38.1C479.5,107.49,496,92,515,92s35.5,15.48,35.5,38.09C550.5,152.51,534.05,168.2,515,168.2Z"></path><path class="d" d="M731.45,2.83h27.16V193H731.45Z"></path><path class="b" d="M842.48,168.2c-14.07,0-24-6.39-30.52-19l84.09-34.74-2.81-7.14c-5.2-14.07-21.21-40-53.79-40-32.36,0-59.3,25.43-59.3,62.87,0,35.28,26.62,62.88,62.33,62.88,28.79,0,45.46-17.64,52.38-27.81l-21.43-14.29c-7.14,10.39-16.88,17.32-30.95,17.32Zm-2-77.38c11.15,0,20.67,5.73,23.81,13.85l-56.81,23.49C807.53,101.75,826.25,90.82,840.53,90.82Z"></path><polygon class="c" points="257.23 266.58 267.77 296.91 299.87 297.56 274.29 316.96 283.58 347.69 257.23 329.35 230.88 347.69 240.17 316.96 214.59 297.56 246.69 296.91 257.23 266.58"></polygon><polygon class="c" points="368.27 266.58 378.81 296.91 410.91 297.56 385.33 316.96 394.63 347.69 368.27 329.35 341.92 347.69 351.22 316.96 325.63 297.56 357.73 296.91 368.27 266.58"></polygon><polygon class="c" points="479.32 266.58 489.86 296.91 521.96 297.56 496.37 316.96 505.67 347.69 479.32 329.35 452.96 347.69 462.26 316.96 436.68 297.56 468.78 296.91 479.32 266.58"></polygon><polygon class="c" points="590.36 266.58 600.9 296.91 633 297.56 607.42 316.96 616.72 347.69 590.36 329.35 564.01 347.69 573.3 316.96 547.72 297.56 579.82 296.91 590.36 266.58"></polygon><polygon class="c" points="701.41 266.58 711.95 296.91 744.05 297.56 718.46 316.96 727.76 347.69 701.41 329.35 675.05 347.69 684.35 316.96 658.76 297.56 690.87 296.91 701.41 266.58"></polygon></svg> 